<mxfile host="app.diagrams.net" modified="2023-10-15T22:26:31.476Z" agent="Mozilla/5.0 (Windows NT 10.0; Win64; x64) AppleWebKit/537.36 (KHTML, like Gecko) Chrome/118.0.0.0 Safari/537.36" version="22.0.4" etag="ttlGi4KLMrpWH5El9JId" type="github">
  <diagram name="Сторінка-1" id="YWWZdygZsWwEbG0jCEvu">
    <mxGraphModel>
      <root>
        <mxCell id="0" />
        <mxCell id="1" parent="0" />
      </root>
    </mxGraphModel>
  </diagram>
</mxfile>
